HIERARCHY
ROOT Hips
{
	OFFSET 0.000000 0.000000 0.000000 
	CHANNELS 6 Xposition Yposition Zposition Zrotation Yrotation Xrotation
	JOINT LeftUpLeg
	{
		OFFSET 1.363060 -1.794630 0.839290 
		CHANNELS 3 Zrotation Yrotation Xrotation
		JOINT LeftLeg
		{
			OFFSET 2.448110 -6.726130 0.000000 
			CHANNELS 3 Zrotation Yrotation Xrotation
			JOINT LeftFoot
			{
				OFFSET 2.562200 -7.039590 0.000000 
				CHANNELS 3 Zrotation Yrotation Xrotation
				JOINT LeftToeBase
				{
					OFFSET 0.157640 -0.433110 2.322550 
					CHANNELS 3 Zrotation Yrotation Xrotation
					End Site
					{
						OFFSET 0.000000 0.000000 0.000000 
					}
				}
			}
		}
	}
	JOINT RightUpLeg
	{
		OFFSET -1.305520 -1.794630 0.839290 
		CHANNELS 3 Zrotation Yrotation Xrotation
		JOINT RightLeg
		{
			OFFSET -2.542530 -6.985550 0.000000 
			CHANNELS 3 Zrotation Yrotation Xrotation
			JOINT RightFoot
			{
				OFFSET -2.568260 -7.056230 0.000000 
				CHANNELS 3 Zrotation Yrotation Xrotation
				JOINT RightToeBase
				{
					OFFSET -0.164730 -0.452590 2.363150 
					CHANNELS 3 Zrotation Yrotation Xrotation
					End Site
					{
						OFFSET 0.000000 0.000000 0.000000 
					}
				}
			}
		}
	}
	JOINT Spine
	{
		OFFSET 0.028270 2.035590 -0.193380 
		CHANNELS 3 Zrotation Yrotation Xrotation
		JOINT Spine1
		{
			OFFSET 0.056720 2.048850 -0.042750 
			CHANNELS 3 Zrotation Yrotation Xrotation
			JOINT Neck1
			{
				OFFSET -0.054170 1.746240 0.172020 
				CHANNELS 3 Zrotation Yrotation Xrotation
				JOINT Head
				{
					OFFSET 0.104070 1.761360 -0.123970 
					CHANNELS 3 Zrotation Yrotation Xrotation
					End Site
					{
						OFFSET 0.000000 0.000000 0.000000 
					}
				}
			}
			JOINT LeftArm
			{
				OFFSET 3.362410 1.200890 -0.311210 
				CHANNELS 3 Zrotation Yrotation Xrotation
				JOINT LeftForeArm
				{
					OFFSET 4.983000 -0.000000 -0.000000 
					CHANNELS 3 Zrotation Yrotation Xrotation
					JOINT LeftHand
					{
						OFFSET 3.483560 -0.000000 -0.000000 
						CHANNELS 3 Zrotation Yrotation Xrotation
						JOINT LeftHandIndex1
						{
							OFFSET 0.715260 -0.000000 -0.000000 
							CHANNELS 3 Zrotation Yrotation Xrotation
							End Site
							{
								OFFSET 0.000000 0.000000 0.000000 
							}
						}
					}
				}
			}
			JOINT RightArm
			{
				OFFSET -3.136600 1.374050 -0.404650 
				CHANNELS 3 Zrotation Yrotation Xrotation
				JOINT RightForeArm
				{
					OFFSET -5.241900 -0.000000 -0.000000 
					CHANNELS 3 Zrotation Yrotation Xrotation
					JOINT RightHand
					{
						OFFSET -3.444170 -0.000000 -0.000000 
						CHANNELS 3 Zrotation Yrotation Xrotation
						JOINT RightHandIndex1
						{
							OFFSET -0.622530 -0.000000 -0.000000 
							CHANNELS 3 Zrotation Yrotation Xrotation
							End Site
							{
								OFFSET 0.000000 0.000000 0.000000 
							}
						}
					}
				}
			}
		}
	}
}
MOTION
Frames: 12
Frame Time: 0.041667
33.421256 17.705257 5.606697 36.448100 -89.434422 -26.650514 -17.797492 -5.030430 -3.986185 -0.981292 3.986331 9.570599 0.948427 -1.815550 1.339782 0.000100 -0.061800 -0.169700 14.489877 2.238722 -38.540268 -2.452549 -11.370686 30.990128 3.758359 -18.489367 -0.215841 -0.050200 -1.445400 3.975100 0.046241 -1.878394 -3.832961 4.286603 -1.129902 1.423803 -2.536710 1.850773 21.904603 -0.078800 -0.781600 12.176700 -89.925249 -13.893538 33.770117 20.085150 -39.186345 -6.587999 1.490916 2.502716 18.254061 -7.125000 0.000000 0.000000 90.223086 6.019554 26.030462 -21.068550 36.148421 -7.797803 -0.398133 0.589354 1.760273 7.125000 0.000000 0.000000 
33.293206 17.682992 5.603977 44.995863 -89.378347 -35.072170 -18.101756 -4.734336 -3.776944 -0.972226 3.994123 9.601922 1.015627 -2.183146 0.949746 0.000700 0.164900 0.453200 14.166281 2.531905 -38.298279 -1.869561 -10.455167 28.015956 3.679092 -18.226621 0.354809 -0.035900 -1.222600 3.361400 0.051627 -1.931316 -3.881935 4.447725 -1.150242 1.236192 -2.576840 1.876525 21.906448 -0.094600 -0.779900 12.200400 -90.252764 -13.375754 32.765709 19.392667 -38.569934 -6.332147 1.577943 2.490935 18.497174 -7.125000 0.000000 0.000000 90.978063 5.355216 25.244472 -20.285704 35.315440 -7.337787 -0.394266 0.601293 2.114910 7.125000 0.000000 0.000000 
33.163444 17.658208 5.601256 52.856768 -89.385570 -42.750563 -18.322705 -4.509090 -3.546261 -0.963113 3.994297 9.620982 1.061076 -2.432970 0.535832 0.001300 0.232400 0.638600 13.856351 3.064412 -37.994583 -1.334110 -9.526494 25.066988 3.592994 -17.965447 0.877546 -0.018500 -0.877200 2.411000 0.034299 -1.953161 -3.848008 4.445790 -1.171264 1.433963 -2.585143 1.874146 21.791954 -0.099300 -0.765900 12.148100 -90.485865 -13.099672 31.742345 18.621490 -37.877044 -6.055073 1.665127 2.504407 18.655277 -7.125000 0.000000 0.000000 91.861170 5.264632 24.218024 -19.245139 34.170578 -6.738756 -0.388812 0.612741 2.558338 7.125000 0.000000 0.000000 
33.028341 17.632316 5.598234 56.557221 -89.243442 -46.278233 -18.557032 -4.316269 -3.340027 -0.949431 4.030871 9.733035 1.123477 -2.762975 0.107999 0.003300 0.371200 1.020000 13.328472 3.843074 -37.421791 -0.868825 -8.611140 22.270594 3.549495 -17.771191 0.780002 -0.022100 -0.960400 2.640000 0.049356 -2.047985 -3.816268 4.543336 -1.231772 1.644851 -2.644172 1.848203 21.635321 -0.122000 -0.769500 12.041200 -90.758756 -12.683040 30.868674 17.831370 -37.163064 -5.763105 1.734486 2.522821 18.764292 -7.125000 0.000000 0.000000 92.568739 5.114269 23.148549 -18.240040 33.020475 -6.162894 -0.390234 0.623428 2.641180 7.125000 0.000000 0.000000 
32.893642 17.606525 5.595010 59.623380 -89.096933 -49.180752 -18.774634 -4.103231 -3.115737 -0.936830 4.057671 9.818097 1.188805 -3.103199 -0.308248 0.006300 0.513500 1.411100 12.788774 4.653049 -36.869018 -0.460229 -7.680453 19.493507 3.540274 -17.751667 0.803993 -0.014200 -0.768400 2.111700 0.063571 -2.126383 -3.793395 4.645815 -1.283454 1.805535 -2.685004 1.836983 21.514864 -0.138000 -0.767500 11.972300 -91.029004 -12.282829 29.980175 17.066582 -36.456959 -5.488012 1.806033 2.540250 18.876831 -7.125000 0.000000 0.000000 93.243047 4.965609 22.021822 -17.299634 31.900215 -5.639128 -0.390250 0.633920 2.700724 7.125000 0.000000 0.000000 
32.756726 17.580028 5.591685 61.282160 -88.938159 -50.683978 -18.965997 -3.898315 -2.886509 -0.923115 4.094035 9.923176 1.258575 -3.460018 -0.726217 0.010200 0.653200 1.794900 12.181009 5.604750 -36.222298 -0.119636 -6.775474 16.855361 3.583060 -17.913744 0.621485 -0.006700 -0.530000 1.456400 0.088182 -2.210461 -3.774135 4.772533 -1.336691 1.953455 -2.720448 1.826485 21.401189 -0.149600 -0.767000 11.908300 -91.299065 -11.845507 29.166414 16.284313 -35.721338 -5.206840 1.871004 2.559691 18.965652 -7.125000 0.000000 0.000000 93.817978 4.863802 20.843495 -16.376533 30.756536 -5.134156 -0.392774 0.643479 2.577761 7.125000 0.000000 0.000000 
32.617695 17.552826 5.588361 61.818834 -88.775374 -51.078970 -19.131240 -3.707330 -2.646771 -0.908203 4.140155 10.049918 1.329506 -3.819107 -1.143265 0.014700 0.781800 2.148500 11.542616 6.637410 -35.551270 0.146351 -5.946107 14.483005 3.678486 -18.250919 0.205776 -0.001600 -0.261900 0.719700 0.124600 -2.301002 -3.766469 4.928163 -1.390399 2.049834 -2.760674 1.819820 21.301281 -0.162900 -0.768200 11.855500 -91.572512 -11.356669 28.424099 15.475538 -34.943994 -4.916604 1.929862 2.575086 19.054153 -7.125000 0.000000 0.000000 94.268409 4.759738 19.643868 -15.501402 29.630593 -4.665278 -0.397379 0.651959 2.284296 7.125000 0.000000 0.000000 
32.477253 17.524819 5.585540 61.882680 -88.630197 -51.012877 -19.267708 -3.528721 -2.404083 -0.891455 4.196561 10.203192 1.398782 -4.164883 -1.557461 0.019100 0.891200 2.449500 10.956234 7.632825 -34.963994 0.338000 -5.248465 12.515285 3.802054 -18.675108 -0.381270 -0.000100 0.051600 -0.141900 0.168201 -2.383973 -3.776164 5.094180 -1.436757 2.068789 -2.802936 1.819449 21.220522 -0.179700 -0.768600 11.818300 -91.837900 -10.812358 27.744204 14.627887 -34.107449 -4.613953 1.981152 2.586464 19.174174 -7.125000 0.000000 0.000000 94.592421 4.636894 18.420973 -14.679556 28.534462 -4.236210 -0.403185 0.659096 1.916117 7.125000 0.000000 0.000000 
32.335702 17.496307 5.583323 61.676913 -88.504611 -50.694976 -19.381640 -3.361755 -2.149454 -0.872544 4.264005 10.385071 1.464045 -4.486327 -1.966894 0.022800 0.975200 2.680600 10.511107 8.430139 -34.552101 0.461593 -4.735236 11.085042 3.911997 -19.035899 -1.028237 -0.003200 0.367100 -1.008700 0.215216 -2.462417 -3.785960 5.251362 -1.479312 2.077643 -2.840631 1.817711 21.139559 -0.195800 -0.768400 11.785400 -92.085391 -10.273280 27.092194 13.729550 -33.196469 -4.297984 2.024598 2.590346 19.364605 -7.125000 0.000000 0.000000 94.804960 4.544846 17.176892 -13.909418 27.474849 -3.846725 -0.409791 0.664502 1.611052 7.125000 0.000000 0.000000 
32.193245 17.467493 5.581812 61.415144 -88.396362 -50.343449 -19.487258 -3.213967 -1.877258 -0.851224 4.342195 10.595703 1.522039 -4.765689 -2.369369 0.025200 1.025700 2.819500 10.287909 8.876770 -34.395164 0.525954 -4.445065 10.287517 3.962059 -19.174293 -1.557749 -0.010000 0.645400 -1.773500 0.263466 -2.534311 -3.795171 5.395150 -1.517710 2.076798 -2.879968 1.807202 21.055470 -0.217200 -0.770200 11.754900 -92.314439 -9.743319 26.412775 12.794979 -32.221054 -3.975657 2.052003 2.587084 19.710148 -7.125000 0.000000 0.000000 94.904320 4.467921 15.908959 -13.200198 26.472095 -3.502142 -0.416049 0.668212 1.503990 7.125000 0.000000 0.000000 
32.049983 17.439183 5.581208 61.215674 -88.298945 -50.079916 -19.596756 -3.080317 -1.584733 -0.826976 4.433311 10.841258 1.573390 -5.007086 -2.764712 0.026800 1.056200 2.903400 10.297020 8.945997 -34.488237 0.541006 -4.384527 10.130522 3.935986 -19.039833 -1.852336 -0.016200 0.822300 -2.260100 0.310202 -2.600087 -3.785066 5.516606 -1.554943 2.142200 -2.914209 1.790970 20.948511 -0.240500 -0.768500 11.716200 -92.519837 -9.278822 25.661486 11.845994 -31.207437 -3.657509 2.046237 2.612515 20.250176 -7.125000 0.000000 0.000000 94.905041 4.469397 14.599376 -12.543103 25.522419 -3.197994 -0.421208 0.670132 1.703798 7.125000 0.000000 0.000000 
31.905813 17.411478 5.581409 61.149407 -88.205519 -49.982855 -19.725105 -2.964562 -1.259445 -0.800012 4.534178 11.113667 1.616530 -5.204198 -3.148584 0.027500 1.070600 2.943000 10.498277 8.698958 -34.773850 0.513203 -4.531523 10.548274 3.841080 -18.666693 -1.832570 -0.017500 0.855300 -2.350700 0.356916 -2.663857 -3.767428 5.629832 -1.592085 2.220513 -2.939214 1.760285 20.835565 -0.264200 -0.769900 11.682100 -92.710360 -8.832108 24.792654 10.914698 -30.184198 -3.354572 2.010168 2.640285 21.025223 -7.125000 0.000000 0.000000 94.791754 4.512096 13.258911 -11.943761 24.637866 -2.935173 -0.424467 0.670346 2.235089 7.125000 0.000000 0.000000 
